<?xml version="1.0" encoding="utf-8"?>
<!-- Generator: Adobe Illustrator 22.0.0, SVG Export Plug-In . SVG Version: 6.00 Build 0)  -->
<svg version="1.1" xmlns="http://www.w3.org/2000/svg" xmlns:xlink="http://www.w3.org/1999/xlink" x="0px" y="0px"
	 viewBox="0 0 63.8 63.8" style="enable-background:new 0 0 63.8 63.8;" xml:space="preserve">
<style type="text/css">
	.st0{fill:#CE3030;}
	.st1{fill:#EAEAEA;}
	.st2{opacity:0.3;fill:#EAEAEA;}
	.st3{fill:#63775E;}
	.st4{fill:#51B236;}
</style>
<g id="Calque_3">
	<circle class="st0" cx="31.9" cy="106.6" r="31.1"/>
</g>
<g id="Calque_5">
</g>
<g id="Calque_2">
	<path class="st1" d="M26.8,105.1c3.6-0.3,3.5-3.6,3.5-5.3c-0.1-6.5-5.8-6.6-5.8-6.6H11.8v26h12.3c6.1,0,6.8-4.4,7-7
		c0-0.4,0-1.1,0-1.5C31,108.5,30.2,105.1,26.8,105.1z M17.1,97.8h6.6c1,0,1.8,0.9,1.8,2v2.3c0,0.8-0.6,1.5-1.3,1.5h-7V97.8z
		 M26.2,111.8c0,1.5-1.1,2.7-2.4,2.7h-6.7v-6.9h6.5c1.5,0,2.6,1.3,2.6,3V111.8z"/>
</g>
<g id="Calque_6">
	<g>
		<path d="M25.4,27.4v-2.3c0-1.1-0.8-2-1.8-2h-6.6v5.8h7C24.8,28.9,25.4,28.3,25.4,27.4z"/>
		<path d="M23.6,32.9h-6.5v6.9h6.7c1.3,0,2.4-1.2,2.4-2.7v-1.2C26.2,34.3,25,32.9,23.6,32.9z"/>
		<path d="M42.5,29.8c-2.2,0-4,1.6-4.3,3.7h8.5C46.4,31.4,44.7,29.8,42.5,29.8z"/>
		<path d="M31.9,0.8C14.7,0.8,0.8,14.7,0.8,31.9C0.8,49.1,14.7,63,31.9,63C49.1,63,63,49.1,63,31.9C63,14.7,49.1,0.8,31.9,0.8z
			 M31.1,37.5c-0.2,2.6-0.9,7-7,7H11.8v-26h12.7c0,0,5.6,0.1,5.8,6.6c0,1.6,0.1,4.9-3.5,5.3c3.5,0,4.2,3.5,4.3,5.6
			C31.1,36.3,31.1,37.1,31.1,37.5z M36.2,20.3h12.6v2.9H36.2V20.3z M51.9,36.7h-4.7h-2.4H38c0.3,2.4,2.3,4.3,4.6,4.3
			c1.5,0,2.8-0.8,3.7-2h5c-1.4,3.7-4.8,6.2-8.8,6.2c-5.2,0-9.5-4.4-9.5-9.8s4.3-9.8,9.5-9.8S52,30,52,35.5
			C52,35.9,52,36.3,51.9,36.7z"/>
	</g>
	<g>
		<path class="st2" d="M42.6,115.7c-2.3,0-4.3-1.9-4.6-4.3h6.8h2.4h4.7c0.1-0.4,0.1-0.8,0.1-1.3c0-5.4-4.3-9.8-9.5-9.8
			s-9.5,4.4-9.5,9.8c0,5.4,4.3,9.8,9.5,9.8c4,0,7.5-2.6,8.8-6.2h-5C45.5,114.9,44.1,115.7,42.6,115.7z M42.5,104.5
			c2.2,0,4,1.6,4.3,3.7h-8.5C38.5,106.1,40.3,104.5,42.5,104.5z"/>
	</g>
	<rect x="36.2" y="95" class="st1" width="12.6" height="2.9"/>
</g>
<g id="Calque_7">
	<g>
		<path d="M125.4,14.6H107c-4.5,0-8.1,3.6-8.1,8.1v18.3c0,4.5,3.6,8.1,8.1,8.1h18.3c4.5,0,8.1-3.6,8.1-8.1V22.7
			C133.5,18.2,129.9,14.6,125.4,14.6z M116.1,42.7c-6,0-10.9-4.9-10.9-10.9s4.9-10.9,10.9-10.9S127,25.8,127,31.8
			S122.1,42.7,116.1,42.7z M127.2,23.1c-1.4,0-2.5-1.1-2.5-2.5c0-1.4,1.1-2.5,2.5-2.5c1.4,0,2.5,1.1,2.5,2.5
			C129.7,22,128.6,23.1,127.2,23.1z"/>
		<path d="M115.9,0.8c-17.2,0-31.1,13.9-31.1,31.1c0,17.2,13.9,31.1,31.1,31.1S147,49.1,147,31.9C147,14.7,133.1,0.8,115.9,0.8z
			 M137,40.6c0,6.8-5.5,12.3-12.3,12.3h-17.4c-6.8,0-12.3-5.5-12.3-12.3V23.2c0-6.8,5.5-12.3,12.3-12.3h17.4
			c6.8,0,12.3,5.5,12.3,12.3V40.6z"/>
		<path d="M116.2,24.9c-3.8,0-6.9,3.1-6.9,6.9c0,3.8,3.1,6.9,6.9,6.9c3.8,0,6.9-3.1,6.9-6.9C123.1,28,120,24.9,116.2,24.9z"/>
	</g>
	<g>
		<path class="st0" d="M125.4,89.2H107c-4.5,0-8.1,3.6-8.1,8.1v18.3c0,4.5,3.6,8.1,8.1,8.1h18.3c4.5,0,8.1-3.6,8.1-8.1V97.4
			C133.5,92.9,129.9,89.2,125.4,89.2z M116.1,117.4c-6,0-10.9-4.9-10.9-10.9s4.9-10.9,10.9-10.9s10.9,4.9,10.9,10.9
			S122.1,117.4,116.1,117.4z M127.2,97.8c-1.4,0-2.5-1.1-2.5-2.5c0-1.4,1.1-2.5,2.5-2.5c1.4,0,2.5,1.1,2.5,2.5
			C129.7,96.7,128.6,97.8,127.2,97.8z"/>
		<path class="st0" d="M115.9,75.5c-17.2,0-31.1,13.9-31.1,31.1c0,17.2,13.9,31.1,31.1,31.1s31.1-13.9,31.1-31.1
			C147,89.4,133.1,75.5,115.9,75.5z M137,115.3c0,6.8-5.5,12.3-12.3,12.3h-17.4c-6.8,0-12.3-5.5-12.3-12.3V97.9
			c0-6.8,5.5-12.3,12.3-12.3h17.4c6.8,0,12.3,5.5,12.3,12.3V115.3z"/>
		<path class="st0" d="M116.2,99.6c-3.8,0-6.9,3.1-6.9,6.9c0,3.8,3.1,6.9,6.9,6.9c3.8,0,6.9-3.1,6.9-6.9
			C123.1,102.7,120,99.6,116.2,99.6z"/>
		<path class="st3" d="M124.6,85.6h-17.4c-6.8,0-12.3,5.5-12.3,12.3v17.4c0,6.8,5.5,12.3,12.3,12.3h17.4c6.8,0,12.3-5.5,12.3-12.3
			V97.9C137,91.1,131.5,85.6,124.6,85.6z M133.5,115.7c0,4.5-3.6,8.1-8.1,8.1H107c-4.5,0-8.1-3.6-8.1-8.1V97.4
			c0-4.5,3.6-8.1,8.1-8.1h18.3c4.5,0,8.1,3.6,8.1,8.1V115.7z"/>
		<path class="st4" d="M116.1,95.6c-6,0-10.9,4.9-10.9,10.9s4.9,10.9,10.9,10.9s10.9-4.9,10.9-10.9S122.1,95.6,116.1,95.6z
			 M116.2,113.5c-3.8,0-6.9-3.1-6.9-6.9c0-3.8,3.1-6.9,6.9-6.9c3.8,0,6.9,3.1,6.9,6.9C123.1,110.4,120,113.5,116.2,113.5z"/>
		<path class="st4" d="M127.2,92.9c-1.4,0-2.5,1.1-2.5,2.5c0,1.4,1.1,2.5,2.5,2.5c1.4,0,2.5-1.1,2.5-2.5
			C129.7,94,128.6,92.9,127.2,92.9z"/>
	</g>
</g>
<g id="Calque_8">
</g>
</svg>
