<?xml version="1.0" encoding="utf-8"?>
<!-- Generator: Adobe Illustrator 22.0.0, SVG Export Plug-In . SVG Version: 6.00 Build 0)  -->
<svg version="1.1" xmlns="http://www.w3.org/2000/svg" xmlns:xlink="http://www.w3.org/1999/xlink" x="0px" y="0px"
	 viewBox="0 0 63.8 63.8" style="enable-background:new 0 0 63.8 63.8;" xml:space="preserve">
<style type="text/css">
	.st0{fill:#CE3030;}
	.st1{fill:#EAEAEA;}
	.st2{opacity:0.3;fill:#EAEAEA;}
	.st3{fill:#63775E;}
	.st4{fill:#51B236;}
	.st5{display:none;}
</style>
<g id="Calque_3">
</g>
<g id="Calque_5">
</g>
<g id="Calque_2">
</g>
<g id="Calque_6">
</g>
<g id="Calque_7">
</g>
<g id="Calque_8">
</g>
<g id="Calque_9" class="st5">
	
		<image style="display:inline;overflow:visible;" width="2653" height="2572" xlink:href="CADA2D4B.jpg"  transform="matrix(2.021142e-02 0 0 2.021142e-02 5.1062 7.5146)">
	</image>
</g>
<g id="Calque_10">
	<g>
		<path d="M31.9,0.8C14.7,0.8,0.8,14.7,0.8,31.9S14.7,63,31.9,63C49.1,63,63,49.1,63,31.9S49.1,0.8,31.9,0.8z M23.5,49.3h-7.3V26.1
			h7.3V49.3z M19.8,22.9c-2.4,0-4.3-1.9-4.3-4.3s1.9-4.3,4.3-4.3c2.4,0,4.3,1.9,4.3,4.3S22.2,22.9,19.8,22.9z M50.1,33.4v15.9h-6.8
			h-0.3V35.9c0-2.2-1.8-4-4-4c-2.2,0-4,1.8-4,4v13.4h-0.2h-3.8h-3.4V26.1h7.3v3c0.5-1.4,2.4-4,8.6-3.4c3.2,0.3,6,2.8,6.5,6
			c0,0.3,0.1,0.5,0.1,0.7C50.2,33,50.1,33.4,50.1,33.4z"/>
	</g>
</g>
</svg>
