<?xml version="1.0" encoding="utf-8"?>
<!-- Generator: Adobe Illustrator 22.0.0, SVG Export Plug-In . SVG Version: 6.00 Build 0)  -->
<svg version="1.1" xmlns="http://www.w3.org/2000/svg" xmlns:xlink="http://www.w3.org/1999/xlink" x="0px" y="0px"
	 viewBox="0 0 63.8 63.8" style="enable-background:new 0 0 63.8 63.8;" xml:space="preserve">
<style type="text/css">
	.st0{fill:#CE3030;}
	.st1{fill:#EAEAEA;}
	.st2{opacity:0.3;fill:#EAEAEA;}
	.st3{fill:#63775E;}
	.st4{fill:#51B236;}
</style>
<g id="Calque_3">
</g>
<g id="Calque_5">
</g>
<g id="Calque_2">
</g>
<g id="Calque_6">
	<g>
		<path d="M25.4,27.4v-2.3c0-1.1-0.8-2-1.8-2h-6.6v5.8h7C24.8,28.9,25.4,28.3,25.4,27.4z"/>
		<path d="M23.6,32.9h-6.5v6.9h6.7c1.3,0,2.4-1.2,2.4-2.7v-1.2C26.2,34.3,25,32.9,23.6,32.9z"/>
		<path d="M42.5,29.8c-2.2,0-4,1.6-4.3,3.7h8.5C46.4,31.4,44.7,29.8,42.5,29.8z"/>
		<path d="M31.9,0.8C14.7,0.8,0.8,14.7,0.8,31.9C0.8,49.1,14.7,63,31.9,63C49.1,63,63,49.1,63,31.9C63,14.7,49.1,0.8,31.9,0.8z
			 M31.1,37.5c-0.2,2.6-0.9,7-7,7H11.8v-26h12.7c0,0,5.6,0.1,5.8,6.6c0,1.6,0.1,4.9-3.5,5.3c3.5,0,4.2,3.5,4.3,5.6
			C31.1,36.3,31.1,37.1,31.1,37.5z M36.2,20.3h12.6v2.9H36.2V20.3z M51.9,36.7h-4.7h-2.4H38c0.3,2.4,2.3,4.3,4.6,4.3
			c1.5,0,2.8-0.8,3.7-2h5c-1.4,3.7-4.8,6.2-8.8,6.2c-5.2,0-9.5-4.4-9.5-9.8s4.3-9.8,9.5-9.8S52,30,52,35.5
			C52,35.9,52,36.3,51.9,36.7z"/>
	</g>
</g>
<g id="Calque_7">
</g>
<g id="Calque_8">
</g>
</svg>
