<?xml version="1.0" encoding="utf-8"?>
<!-- Generator: Adobe Illustrator 22.0.0, SVG Export Plug-In . SVG Version: 6.00 Build 0)  -->
<svg version="1.1" xmlns="http://www.w3.org/2000/svg" xmlns:xlink="http://www.w3.org/1999/xlink" x="0px" y="0px"
	 viewBox="0 0 63.8 63.8" style="enable-background:new 0 0 63.8 63.8;" xml:space="preserve">
<style type="text/css">
	.st0{fill:#CE3030;}
	.st1{fill:#EAEAEA;}
	.st2{opacity:0.3;fill:#EAEAEA;}
	.st3{fill:#63775E;}
	.st4{fill:#51B236;}
</style>
<g id="Calque_3">
</g>
<g id="Calque_5">
</g>
<g id="Calque_2">
</g>
<g id="Calque_6">
</g>
<g id="Calque_7">
	<g>
		<path d="M41.5,14.6H23.2c-4.5,0-8.1,3.6-8.1,8.1v18.3c0,4.5,3.6,8.1,8.1,8.1h18.3c4.5,0,8.1-3.6,8.1-8.1V22.7
			C49.7,18.2,46,14.6,41.5,14.6z M32.3,42.7c-6,0-10.9-4.9-10.9-10.9s4.9-10.9,10.9-10.9s10.9,4.9,10.9,10.9S38.3,42.7,32.3,42.7z
			 M43.4,23.1c-1.4,0-2.5-1.1-2.5-2.5c0-1.4,1.1-2.5,2.5-2.5c1.4,0,2.5,1.1,2.5,2.5C45.9,22,44.8,23.1,43.4,23.1z"/>
		<path d="M32.1,0.8C14.9,0.8,1,14.7,1,31.9C1,49.1,14.9,63,32.1,63s31.1-13.9,31.1-31.1C63.2,14.7,49.3,0.8,32.1,0.8z M53.1,40.6
			c0,6.8-5.5,12.3-12.3,12.3H23.4c-6.8,0-12.3-5.5-12.3-12.3V23.2c0-6.8,5.5-12.3,12.3-12.3h17.4c6.8,0,12.3,5.5,12.3,12.3V40.6z"/>
		<path d="M32.4,24.9c-3.8,0-6.9,3.1-6.9,6.9c0,3.8,3.1,6.9,6.9,6.9c3.8,0,6.9-3.1,6.9-6.9C39.3,28,36.2,24.9,32.4,24.9z"/>
	</g>
</g>
<g id="Calque_8">
</g>
</svg>
